/* XPM */
static char *_9a593115d664b63ca8f40d97874f17bmC4uEF38qh33hMex[] = {
/* columns rows colors chars-per-pixel */
"172 86 10 1 ",
"  c None",
". c #2D220F",
"X c #3D2C12",
"o c #4D3716",
"O c #AD7718",
"+ c #DDAF0A",
"@ c #E8BD07",
"# c #F3CA04",
"$ c #FFD800",
"% c #FEFEC0",
/* pixels */
"                                                                                                                                                                            ",
"     o%%%%%%%%%%o   o%%%%%%%%%%%%o     o%%%%%%%%%%o   o%%%%%%%%%%%%o   o%%%%%%%%%%%%%%o o%%%%%%%%%%%%%%o   o%%%%%%%%%%o   o%%%%%%oo%%%%%%o o%%%%%%%%%%%%%%o                 ",
"     o%%%%%%%%%%o   o%%%%%%%%%%%%o     o%%%%%%%%%%o   o%%%%%%%%%%%%o   o%%%%%%%%%%%%%%o o%%%%%%%%%%%%%%o   o%%%%%%%%%%o   o%%%%%%oo%%%%%%o o%%%%%%%%%%%%%%o                 ",
"   o%%%$$$$$$$$%%%o o%$$$$$$$$$$%%%o o%%%$$$$$$$$%%%o o%$$$$$$$$$$%%%o o%$$$$$$$$$$$$%o o%$$$$$$$$$$$$%o o%%%$$$$$$$$%%%o o%$$$$%oo%$$$$%o o%$$$$$$$$$$$$%o                 ",
"   o%%$$$$$$$$$$%%o o%$$$$$$$$$$$%%o o%%$$$$$$$$$$%%o o%$$$$$$$$$$$%%o o%$$$$$$$$$$$$%o o%$$$$$$$$$$$$%o o%%$$$$$$$$$$%%o o%$$$$%oo%$$$$%o o%$$$$$$$$$$$$%o                 ",
"   o%$$$$%OO%$$$$%o o%$$$$%OO%$$$$%o o%$$$$%OO%$$$$%o o%$$$$%OO%$$$$%o o%$$$$%OOOOOOOOo o%$$$$%OOOOOOOOo o%$$$$%OO%$$$$%o o%$$$$%oo%$$$$%o oOOOO%$$$$%OOOOo                 ",
"   o%$$$$%OO%$$$$%o o%$$$$%OO%$$$$%o o%$$$$%OO%$$$$%o o%$$$$%OO%$$$$%o o%$$$$%OOOOOOOOo o%$$$$%OOOOOOOOo o%$$$$%OO%$$$$%o o%$$$$%oo%$$$$%o oOOOO%$$$$%OOOOo                 ",
"   o%$$$$%XX%$$$$%o o%$$$$%XX%$$$$%o o%$$$$%XXOOOOOOo o%$$$$%XX%$$$$%o o%$$$$%XXXXXXXXo o%$$$$%XXXXXXXXo o%$$$$%XX%$$$$%o o%$$$$%oo%$$$$%o oXXXX%$$$$%XXXXo                 ",
"   o%$$$$%oo%$$$$%o o%$$$$%oo%$$$$%o o%$$$$%ooOOOOOOo o%$$$$%oo%$$$$%o o%$$$$%ooooooooo o%$$$$%ooooooooo o%$$$$%oo%$$$$%o o%$$$$%oo%$$$$%o ooooo%$$$$%ooooo                 ",
"   o%$#$#%%%#$#$#%o o%$#$#%%%#$#%OOo o%$#$#%ooXXXXXXo o%$#$#%oo%$#$#%o o%$#$#%%%%%%%o.. o%$#$#%%%%%%%o.. o%$#$#%ooOOOOOOo o%$#$#%%%#$#$#%o ....o%$#$#%o....                 ",
"   o%#$#$#%%$#$#$%o o%#$#$#%%$#$%OOo o%#$#$%ooooooooo o%#$#$%oo%#$#$%o o%#$#$#%%%%%%o.. o%#$#$#%%%%%%o.. o%#$#$%ooOOOOOOo o%#$#$#%%$#$#$%o ....o%#$#$%o....                 ",
"   o%############%o o%##########%XXo o%####%o........ o%####%oo%####%o o%##########%o   o%##########%o   o%####%oo%%%%%%o o%############%o     o%####%o                     ",
"   o%############%o o%##########%ooo o%####%o........ o%####%oo%####%o o%##########%o   o%##########%o   o%####%oo%%%%%%o o%############%o     o%####%o                     ",
"   o%#@#@%OO%#@#@%o o%#@#@%OO%#@%%%o o%#@#@%o         o%#@#@%oo%#@#@%o o%#@#@%OOOOOOo   o%#@#@%OOOOOOo   o%#@#@%oo%#@#@%o o%#@#@%OO%#@#@%o     o%#@#@%o                     ",
"   o%@#@#%OO%@#@#%o o%@#@#%OO%@#@%%o o%@#@#%o         o%@#@#%oo%@#@#%o o%@#@#%OOOOOOo   o%@#@#%OOOOOOo   o%@#@#%oo%@#@#%o o%@#@#%OO%@#@#%o     o%@#@#%o                     ",
"   o%@@@@%XX%@@@@%o o%@@@@%XX%@@@@%o o%@@@@%oo%%%%%%o o%@@@@%oo%@@@@%o o%@@@@%XXXXXXo   o%@@@@%XXXXXXo   o%@@@@%ooOO@@@%o o%@@@@%XX%@@@@%o     o%@@@@%o                     ",
"   o%@@@@%oo%@@@@%o o%@@@@%oo%@@@@%o o%@@@@%oo%%%%%%o o%@@@@%oo%@@@@%o o%@@@@%ooooooo   o%@@@@%ooooooo   o%@@@@%ooOO@@@%o o%@@@@%oo%@@@@%o     o%@@@@%o                     ",
"   o%@+@+%oo%@+@+%o o%@+@+%%%+@+@+%o o%@+@+%%%+@+@+%o o%@+@+%%%+@+@+%o o%@+@+%%%%%%%%%o o%@+@+%o......   o%@+@+%%%%%+@+%o o%@+@+%oo%@+@+%o o%%%%+@+@+%%%%%o                 ",
"   o%+@+@%oo%+@+@%o o%+@+@+%%@+@+@%o o%+@+@+%%@+@+@%o o%+@+@+%%@+@+@%o o%+@+@+%%%%%%%%o o%+@+@%o......   o%+@+@+%%%%@+@%o o%+@+@%oo%+@+@%o o%%%%@+@+@+%%%%o                 ",
"   o%++++%oo%++++%o o%++++++++++%OOo oOO%++++++++%OOo o%++++++++++%OOo o%++++++++++++%o o%++++%o         oOO%++++++++++%o o%++++%oo%++++%o o%++++++++++++%o                 ",
"   o%++++%oo%++++%o o%++++++++++%OOo oOO%++++++++%OOo o%++++++++++%OOo o%++++++++++++%o o%++++%o         oOO%++++++++++%o o%++++%oo%++++%o o%++++++++++++%o                 ",
"   oOOOOOOooOOOOOOo oOOOOOOOOOOOOXXo oXXOOOOOOOOOOXXo oOOOOOOOOOOOOXXo oOOOOOOOOOOOOOOo oOOOOOOo         oXXOOOOOOOO%++%o oOOOOOOooOOOOOOo oOOOOOOOOOOOOOOo                 ",
"   oOOOOOOooOOOOOOo oOOOOOOOOOOOOooo oooOOOOOOOOOOooo oOOOOOOOOOOOOooo oOOOOOOOOOOOOOOo oOOOOOOo         oooOOOOOOOO%++%o oOOOOOOooOOOOOOo oOOOOOOOOOOOOOOo                 ",
"   oXXXXXXooXXXXXXo oXXXXXXXXXXXXo.. ..oXXXXXXXXXXo.. oXXXXXXXXXXXXo.. oXXXXXXXXXXXXXXo oXXXXXXo         ..oXXXXXXXXOOOOo oXXXXXXooXXXXXXo oXXXXXXXXXXXXXXo                 ",
"   oooooooooooooooo oooooooooooooo.. ..oooooooooooo.. oooooooooooooo.. oooooooooooooooo oooooooo         ..oooooooooOOOOo oooooooooooooooo oooooooooooooooo                 ",
"   ................ ..............     ............   ..............   ................ ........           ........oXXXXo ................ ................                 ",
"   ................ ..............     ............   ..............   ................ ........           ........oooooo ................ ................                 ",
"                                                                                                                   ......                                                   ",
"                                                                                                                   ......                                                   ",
"                                                                                                                                                                            ",
"       o%%%%%%%%%%o o%%%%%%o  o%%%%o o%%%%%%o         o%%%%o    o%%%%o o%%%%o    o%%%%o   o%%%%%%%%%%o   o%%%%%%%%%%%%o     o%%%%%%%%%%o   o%%%%%%%%%%%%o     o%%%%%%%%%%o  ",
"       o%%%%%%%%%%o o%%%%%%o  o%%%%o o%%%%%%o         o%%%%o    o%%%%o o%%%%o    o%%%%o   o%%%%%%%%%%o   o%%%%%%%%%%%%o     o%%%%%%%%%%o   o%%%%%%%%%%%%o     o%%%%%%%%%%o  ",
"       o%$$$$$$$$%o o%$$$$%oo%%$$$%o o%$$$$%o         o%$$$%%oo%%$$$%o o%$$%%%o  o%$$%o o%%%$$$$$$$$%%%o o%$$$$$$$$$$%%%o o%%$$$$$$$$$$%%o o%$$$$$$$$$$%%%o o%%%$$$$$$$$%%%o",
"       o%$$$$$$$$%o o%$$$$%oo%%$$$%o o%$$$$%o         o%$$$%%oo%%$$$%o o%$$$%%o  o%$$%o o%%$$$$$$$$$$%%o o%$$$$$$$$$$$%%o o%%$$$$$$$$$$%%o o%$$$$$$$$$$$%%o o%%$$$$$$$$$$%%o",
"       oOO%$$$$%OOo o%$$$$%%%$$$$$%o o%$$$$%o         o%$$$$$%%$$$$$%o o%$$$$%o  o%$$%o o%$$$$%OO%$$$$%o o%$$$$%OO%$$$$%o o%$$$$%OO%$$$$%o o%$$$$%OO%$$$$%o o%$$$$$$$$$$$$%o",
"       oOO%$$$$%OOo o%$$$$$%%$$$$$%o o%$$$$%o         o%$$$$$%%$$$$$%o o%$$$$%o  o%$$%o o%$$$$%OO%$$$$%o o%$$$$%OO%$$$$%o o%$$$$%OO%$$$$%o o%$$$$%OO%$$$$%o o%$$$$$$$$$$$$%o",
"       oXX%$$$$%XXo o%$$$$$$$$$$%OOo o%$$$$%o         o%$$$$$$$$$$$$%o o%$$$$%%%oo%$$%o o%$$$$%XX%$$$$%o o%$$$$%XX%$$$$%o o%$$$$%XX%$$$$%o o%$$$$%XX%$$$#%o o%$$$$%OO%$$$$%o",
"       ooo%$$$$%ooo o%$$$$$$$$$$%OOo o%$$$$%o         o%$$$$$$$$$$$$%o o%$$$$$%%oo%$$%o o%$$$$%oo%$$$$%o o%$$$$%oo%$$$$%o o%$$$$%oo%$$$$%o o%$$$$%oo%$$$$%o o%$$$$%OO%$$$$%o",
"       ..o%$#$#%o.. o%$#$#$#$#%OOXXo o%$#$#%o         o%$#%OO%$OO%$#%o o%$#$#$#%%%#$#%o o%$#$#%oo%$#$#%o o%$#$#%%%#$#$#%o o%$#$#%oo%$#$#%o o%$#$#%%%#$#$$%o oOOOOOOXX%$#$#%o",
"       ..o%#$#$%o.. o%#$#$#$#$%OOooo o%#$#$%o         o%#$%OO%#OO%#$%o o%#$#$#$#%%$#$%o o%#$#$%oo%#$#$%o o%#$#$#%%$#$#$%o o%#$#$%oo%#$#$%o o%#$#$#%%$#$#$%o oOOOOOOoo%#$#$%o",
"         o%####%o   o%########%XXo.. o%####%o         o%##%XXOOXX%##%o o%############%o o%####%oo%####%o o%##########%OOo o%####%%%#####%o o%##########%OOo oXXXX%%%%#####%o",
"         o%####%o   o%########%ooo.. o%####%o         o%##%ooOOoo%##%o o%############%o o%####%oo%####%o o%##########%OOo o%#####%%#####%o o%##########%OOo ooooo%%%%#####%o",
"         o%#@#@%o   o%#@#@#@#@%%%o   o%#@#@%o         o%#@%ooXXoo%#@%o o%#@%OO%#@#@#@%o o%#@#@%oo%#@#@%o o%#@#@%OOOOOOXXo o%#@#@#@#@#@#@%o o%#@#@#@#@%OOXXo ....o%#@#@#@%OOo",
"         o%@#@#%o   o%@#@#@#@#@%%o   o%@#@#%o         o%@#%oooooo%@#%o o%@#%OO%@#@#@#%o o%@#@#%oo%@#@#%o o%@#@#%OOOOOOooo o%@#@#@#@#@#@#%o o%@#@#@#@#%OOooo ....o%@#@#@#%OOo",
"   o%%%%oo%@@@@%o   o%@@@@@@@@@@%%%o o%@@@@%o         o%@@%o....o%@@%o o%@@%XXOO%@@@@%o o%@@@@%oo%@@@@%o o%@@@@%XXXXXXo.. o%@@@@%OO%@@@@%o o%@@@@@@@@%%%o..     o%@@%OOOOXXo",
"   o%%%%oo%@@@@%o   o%@@@@@@@@@@@%%o o%@@@@%o         o%@@%o....o%@@%o o%@@%ooOO%@@@@%o o%@@@@%oo%@@@@%o o%@@@@%ooooooo.. o%@@@@%OO%@@@@%o o%@@@@@@@@@%%o..     o%@@%OOOOooo",
"   o%@+%%%+@+@+%o   o%@+@+%OO%@+@+%o o%@+@+%%%%%%%%%o o%@+%o    o%@+%o o%@+%ooXX%@+@+%o o%@+@+%%%+@+@+%o o%@+@+%o......   o%@+@+%%%+@+@+%o o%@+@+%OO%@+%%%o     oOOOOXXXXo..",
"   o%+@+%%@+@+@%o   o%+@+@%OO%+@+@%o o%+@+@+%%%%%%%%o o%+@%o    o%+@%o o%+@%oooo%+@+@%o o%+@+@+%%@+@+@%o o%+@+@%o......   o%+@+@+%%@+@+@%o o%+@+@%OO%+@+%%o     o%%%%ooooo..",
"   oOO%++++++%OOo   o%++++%XXOO%++%o o%++++++++++++%o o%++%o    o%++%o o%++%o..oOO%++%o oOO%++++++++%OOo o%++++%o         oOO%++++++++%OOo o%++++%XXOO%++%o     o%%%%o....  ",
"   oOO%++++++%OOo   o%++++%ooOO%++%o o%++++++++++++%o o%++%o    o%++%o o%++%o..oOO%++%o oOO%++++++++%OOo o%++++%o         oOO%++++++++%OOo o%++++%ooOO%++%o     o%++%o....  ",
"   oXXOOOOOOOOXXo   oOOOOOOooXXOOOOo oOOOOOOOOOOOOOOo oOOOOo    oOOOOo oOOOOo  oXXOOOOo oXXOOOOOOOOOOXXo oOOOOOOo         oXXOOOOOO%++%XXo oOOOOOOooXXOOOOo     oOOOOo      ",
"   oooOOOOOOOOooo   oOOOOOOooooOOOOo oOOOOOOOOOOOOOOo oOOOOo    oOOOOo oOOOOo  oooOOOOo oooOOOOOOOOOOooo oOOOOOOo         oooOOOOOO%++%ooo oOOOOOOooooOOOOo     oOOOOo      ",
"   ..oXXXXXXXXo..   oXXXXXXo..oXXXXo oXXXXXXXXXXXXXXo oXXXXo    oXXXXo oXXXXo  ..oXXXXo ..oXXXXXXXXXXo.. oXXXXXXo         ..oXXXXXXOOOOo.. oXXXXXXo..oXXXXo     oXXXXo      ",
"   ..oooooooooo..   oooooooo..oooooo oooooooooooooooo oooooo    oooooo oooooo  ..oooooo ..oooooooooooo.. oooooooo         ..oooooooOOOOo.. oooooooo..oooooo     oooooo      ",
"     ..........     ........  ...... ................ ......    ...... ......    ......   ............   ........           ......oXXXXo   ........  ......     ......      ",
"     ..........     ........  ...... ................ ......    ...... ......    ......   ............   ........           ......oooooo   ........  ......     ......      ",
"                                                                                                                                  ......                                    ",
"                                                                                                                                  ......                                    ",
"                                                                                                                                                                            ",
"     o%%%%%%%%%%%%o o%%%%%%%%%%%%%%o o%%%%%%oo%%%%%%o o%%%%%%oo%%%%%%o o%%%%o    o%%%%o o%%%%o    o%%%%o o%%%%%%oo%%%%%%o o%%%%%%%%%%%%%%o                                  ",
"     o%%%%%%%%%%%%o o%%%%%%%%%%%%%%o o%%%%%%oo%%%%%%o o%%%%%%oo%%%%%%o o%%%%o    o%%%%o o%%%%o    o%%%%o o%%%%%%oo%%%%%%o o%%%%%%%%%%%%%%o                                  ",
"   o%%%$$$$$$$$$$%o o%$$$$$$$$$$$$%o o%$$$$%oo%$$$$%o o%$$$$%oo%$$$$%o o%$$%o    o%$$%o o%$$%%%oo%%$$$%o o%$$$$%oo%$$$$%o o%$$$$$$$$$$$$%o                                  ",
"   o%%$$$$$$$$$$$%o o%$$$$$$$$$$$$%o o%$$$$%oo%$$$$%o o%$$$$%oo%$$$$%o o%$$%o    o%$$%o o%$$$%%oo%%$$$%o o%$$$$%oo%$$$$%o o%$$$$$$$$$$$$%o                                  ",
"   o%$$$$%OOOOOOOOo oOOOO%$$$$%OOOOo o%$$$$%oo%$$$$%o o%$$$$%oo%$$$$%o o%$$%o    o%$$%o o%$$$$%%%$$$$$%o o%$$$$%oo%$$$$%o oOOOOOOOO%$$$$%o                                  ",
"   o%$$$$%OOOOOOOOo oOOOO%$$$$%OOOOo o%$$$$%oo%$$$$%o o%$$$$%oo%$$$$%o o%$$%o    o%$$%o o%$$$$$%%$$$$$%o o%$$$$%oo%$$$$%o oOOOOOOOO%$$$$%o                                  ",
"   o%$$$$%XXXXXXXXo oXXXX%$$$$%XXXXo o%$$$$%oo%$$$$%o o%$$$$%oo%$$$$%o o%$$%o    o%$$%o oOO%$$$$$$$$%OOo o%$$$$%oo%$$$$%o oXXXXXX%%$$$%OOo      o%%%%o                      ",
"   o%$$$$%ooooooooo ooooo%$$$$%ooooo o%$$$$%oo%$$$$%o o%$$$$%oo%$$$$%o o%$$%o    o%$$%o oOO%$$$$$$$$%OOo o%$$$$%oo%$$$$%o ooooooo%%$$$%OOo      o%%%%o                      ",
"   o%$#$#%%%%%%%o.. ....o%$#$#%o.... o%$#$#%oo%$#$#%o o%$#$#%oo%$#$#%o o%$#%o    o%$#%o oXXOO%$#$#%OOXXo o%$#$#%%%#$#$#%o ....o%%#$#%OOXXo    o%%%#$%%%o                    ",
"   o%#$#$#%%%%%%o.. ....o%#$#$%o.... o%#$#$%oo%#$#$%o o%#$#$%oo%#$#$%o o%#$%o    o%#$%o oooOO%#$#$%OOooo o%#$#$#%%$#$#$%o ....o%%$#$%OOooo    o%%#$#$%%o                    ",
"   oOO#########%%%o     o%####%o     o%####%oo%####%o o%####%oo%####%o o%##%oo%%oo%##%o ..oXX%####%XXo.. oOO%########%OOo     o#####%XXo..    o%######%o                    ",
"   oOO##########%%o     o%####%o     o%####%oo%####%o o%####%oo%####%o o%##%oo%%oo%##%o ..ooo%####%ooo.. oOO%########%OOo     o#####%ooo..    o%######%o                    ",
"   oXXOOOOOO@#@#@%o     o%#@#@%o     o%#@#@%oo%#@#@%o o%#@#@%%%@#@#@%o o%#@%%%@%%%@#@%o   o%%@#@#@#%%o   oXXOO%#@#@%OOXXo   o%%@#@%OOo..      oOO#@#@OOo                    ",
"   oooOOOOOO#@#@#%o     o%@#@#%o     o%@#@#%oo%@#@#%o o%@#@#@%%#@#@#%o o%@#@%%#@%%#@#%o   o%%#@#@#@%%o   oooOO%@#@#%OOooo   o%%#@#%OOo..      oOO@#@#OOo                    ",
"   ..oXXXXXX@@@@@%o     o%@@@@%o     o%@@@@%oo%@@@@%o oOO%@@@@@@@@%OOo o%@@@@@@@@@@@@%o o%%@@@@@@@@@%%%o ..oXX%@@@@%XXo.. o%%@@@%OOXXo        oXXOOOOXXo                    ",
"   ..ooooooo@@@@@%o     o%@@@@%o     o%@@@@%oo%@@@@%o oOO%@@@@@@@@%OOo o%@@@@@@@@@@@@%o o%%@@@@@@@@@@%%o ..ooo%@@@@%ooo.. o%%@@@%OOooo        oooOOOOooo                    ",
"   o%%%%%%%%+@+@+%o     o%@+@+%o     o%@+@+%%%+@+@+%o oXXOO%@+@+%OOXXo o%@+@+%OO%@+@+%o o%@+@+%OO%@+@+%o   ..o%@+@+%o..   o%%+@+%%%%%%%%%o    ..oXXXXo..                    ",
"   o%%%%%%%%@+@+@%o     o%+@+@%o     o%+@+@+%%@+@+@%o oooOO%+@+@%OOooo o%+@+@%OO%+@+@%o o%+@+@%OO%+@+@%o   ..o%+@+@%o..   o%+@+@+%%%%%%%%o    ..oooooo..                    ",
"   o%++++++++++%OOo     o%++++%o     oOO%++++++++%OOo ..oXXOO%+OOXXo.. o%++%OOXXOO%++%o o%++%OOXXOO%++%o     o%++++%o     o%++++++++++++%o      ......                      ",
"   o%++++++++++%OOo     o%++++%o     oOO%++++++++%OOo ..oooOO%+OOooo.. o%++%OOooOO%++%o o%++%OOooOO%++%o     o%++++%o     o%++++++++++++%o      ......                      ",
"   oOOOOOOOOOOOOXXo     oOOOOOOo     oXXOOOOOOOOOOXXo   ..oXXOOXXo..   oOOOOXXooXXOOOOo oOOOOXXooXXOOOOo     oOOOOOOo     oOOOOOOOOOOOOOOo                                  ",
"   oOOOOOOOOOOOOooo     oOOOOOOo     oooOOOOOOOOOOooo   ..oooOOooo..   oOOOOooooooOOOOo oOOOOooooooOOOOo     oOOOOOOo     oOOOOOOOOOOOOOOo                                  ",
"   oXXXXXXXXXXXXo..     oXXXXXXo     ..oXXXXXXXXXXo..     ..oXXo..     oXXXXo....oXXXXo oXXXXo....oXXXXo     oXXXXXXo     oXXXXXXXXXXXXXXo                                  ",
"   oooooooooooooo..     oooooooo     ..oooooooooooo..     ..oooo..     oooooo....oooooo oooooo....oooooo     oooooooo     oooooooooooooooo                                  ",
"   ..............       ........       ............         ....       ......    ...... ......    ......     ........     ................                                  ",
"   ..............       ........       ............         ....       ......    ...... ......    ......     ........     ................                                  ",
"                                                                                                                                                                            "
};
